<?xml version="1.0" encoding="UTF-8"?>
<!DOCTYPE svg PUBLIC "-//W3C//DTD SVG 1.1//EN" "http://www.w3.org/Graphics/SVG/1.1/DTD/svg11.dtd">
<!-- Creator: CorelDRAW -->
<svg xmlns="http://www.w3.org/2000/svg" xml:space="preserve" width="2048px" height="2048px" style="shape-rendering:geometricPrecision; text-rendering:geometricPrecision; image-rendering:optimizeQuality; fill-rule:evenodd; clip-rule:evenodd"
viewBox="0 0 2048 2048"
 xmlns:xlink="http://www.w3.org/1999/xlink">
 <defs>
  <style type="text/css">
   <![CDATA[
    .fil2 {fill:none}
    .fil0 {fill:#212121;fill-rule:nonzero}
    .fil1 {fill:#66BB6A;fill-rule:nonzero}
   ]]>
  </style>
 </defs>
 <g id="Layer_x0020_1">
  <metadata id="CorelCorpID_0Corel-Layer"/>
  <path class="fil0" d="M303.999 914.955l0 519.372 192.142 0c13.2543,0 24,10.7457 24,24 0,3.45236 -0.729922,6.73583 -2.04331,9.70158l-73.9288 222.526 279.186 -250.032 -0.0649607 -0.0732284c4.58268,-4.10433 10.3075,-6.12166 16.011,-6.1193l0 -0.00236221 597.408 0 0 -519.372 -1032.71 0zm-48 543.372l0 -567.372c0,-13.2543 10.7457,-24 24,-24l1080.71 0c13.2543,0 24,10.7457 24,24l0 567.372c0,13.2543 -10.7457,24 -24,24l-612.38 0 -337.569 302.319c-6.20197,6.68504 -15.9591,9.52442 -25.1776,6.46182 -12.5787,-4.17874 -19.3878,-17.765 -15.2091,-30.3437l0.100394 0.0330709 92.5146 -278.47 -182.99 0c-13.2543,0 -24,-10.7457 -24,-24z"/>
  <polygon class="fil1" points="403.029,1042.03 1237.68,1042.03 1237.68,1090.03 403.029,1090.03 "/>
  <polygon class="fil1" points="403.029,1265.49 1237.68,1265.49 1237.68,1313.49 403.029,1313.49 "/>
  <path class="fil0" d="M1792 279.668l0 489.833c0,13.2543 -10.7457,24 -24,24l-153.45 0 78.4394 236.105 0.0992127 -0.0330709c4.17756,12.5787 -2.6315,26.165 -15.2102,30.3425 -9.21733,3.06142 -18.9756,0.223229 -25.1764,-6.46182l-290.261 -259.953 -527.456 0c-13.2543,0 -24,-10.7457 -24,-24l0 -489.833c0,-13.2543 10.7457,-24 24,-24l933.015 0c13.2543,0 24,10.7457 24,24zm-48 465.833l0 -441.833 -885.015 0 0 441.833 512.484 0 0 0.00236221c5.70355,-0.00236221 11.4284,2.01496 16.011,6.1193l-0.0649607 0.0732284 231.878 207.666 -59.8524 -180.161c-1.31339,-2.96575 -2.04331,-6.24804 -2.04331,-9.7004 0,-13.2543 10.7457,-24 24,-24l162.602 0z"/>
  <polygon class="fil1" points="1661.78,454.819 941.2,454.819 941.2,406.819 1661.78,406.819 "/>
  <polygon class="fil1" points="1661.78,647.737 941.2,647.737 941.2,599.737 1661.78,599.737 "/>
 </g>
 <rect class="fil2" width="2048" height="2048"/>
</svg>
