<?xml version="1.0" encoding="UTF-8" standalone="no"?>
<!-- Created with Inkscape (http://www.inkscape.org/) -->

<svg
   width="432"
   height="432"
   viewBox="0 0 432 432"
   version="1.1"
   id="svg1"
   inkscape:version="1.3.2 (091e20e, 2023-11-25, custom)"
   sodipodi:docname="icon.svg"
   xml:space="preserve"
   inkscape:export-filename="icon_288.png"
   inkscape:export-xdpi="64"
   inkscape:export-ydpi="64"
   xmlns:inkscape="http://www.inkscape.org/namespaces/inkscape"
   xmlns:sodipodi="http://sodipodi.sourceforge.net/DTD/sodipodi-0.dtd"
   xmlns="http://www.w3.org/2000/svg"
   xmlns:svg="http://www.w3.org/2000/svg"><sodipodi:namedview
     id="namedview1"
     pagecolor="#000000"
     bordercolor="#cccccc"
     borderopacity="1"
     inkscape:showpageshadow="0"
     inkscape:pageopacity="1"
     inkscape:pagecheckerboard="true"
     inkscape:deskcolor="#d1d1d1"
     inkscape:document-units="px"
     inkscape:zoom="0.70710678"
     inkscape:cx="323.1478"
     inkscape:cy="252.43712"
     inkscape:window-width="2560"
     inkscape:window-height="1369"
     inkscape:window-x="-8"
     inkscape:window-y="-8"
     inkscape:window-maximized="1"
     inkscape:current-layer="svg1"
     showgrid="false" /><defs
     id="defs1"><rect
       x="56.57261"
       y="81.881409"
       width="282.3668"
       height="175.67284"
       id="rect2" /></defs><rect
     style="fill:#9c9cff;fill-opacity:1;stroke:none;stroke-width:3;stroke-linecap:round;stroke-linejoin:bevel;stroke-dasharray:none;stroke-opacity:1"
     id="rect6"
     width="220.35355"
     height="333.31549"
     x="109.25"
     y="71.5" /><text
     xml:space="preserve"
     style="font-style:normal;font-variant:normal;font-weight:bold;font-stretch:normal;font-size:354.284px;line-height:1.25;font-family:Calibri;-inkscape-font-specification:'Calibri, Bold';font-variant-ligatures:normal;font-variant-caps:normal;font-variant-numeric:normal;font-variant-east-asian:normal;fill:#ead9ff;fill-opacity:1;stroke:#0c003c;stroke-width:2.58477;stroke-dasharray:none;stroke-opacity:1"
     x="103.35767"
     y="334.71902"
     id="text7"><tspan
       sodipodi:role="line"
       id="tspan7"
       x="103.35767"
       y="334.71902"
       style="font-style:normal;font-variant:normal;font-weight:bold;font-stretch:normal;font-size:354.284px;font-family:Calibri;-inkscape-font-specification:'Calibri, Bold';font-variant-ligatures:normal;font-variant-caps:normal;font-variant-numeric:normal;font-variant-east-asian:normal;fill:#ead9ff;fill-opacity:1;stroke:#0c003c;stroke-width:2.58477;stroke-dasharray:none;stroke-opacity:1">N</tspan></text><path
     class="st0"
     d="m 141.53979,8.7795121 h 154.85972 c 11.78828,0 22.46825,4.8026319 30.22636,12.5607319 7.7581,7.758098 12.56073,18.438079 12.56073,30.226359 V 378.68299 c 0,11.78827 -4.80263,22.46825 -12.56073,30.22636 -7.75811,7.75809 -18.43808,12.56073 -30.22636,12.56073 H 141.53979 c -11.78828,0 -22.46826,-4.80264 -30.22636,-12.56073 -7.7581,-7.75811 -12.560732,-18.43809 -12.560732,-30.22636 V 51.566603 c 0,-11.78828 4.802632,-22.468261 12.560732,-30.226359 7.7581,-7.7581 18.47166,-12.5607319 30.22636,-12.5607319 z M 218.95285,368.74187 c 9.67244,0 17.5313,7.85886 17.5313,17.53128 0,9.67245 -7.85886,17.53129 -17.5313,17.53129 -9.67242,0 -17.53128,-7.85884 -17.53128,-17.53129 0.0336,-9.67242 7.85886,-17.53128 17.53128,-17.53128 z M 111.04475,355.30793 H 326.92813 V 74.941655 H 111.04475 Z"
     id="path1-7"
     style="fill:#0d0d39;stroke-width:3.35849;fill-opacity:1"
     inkscape:label="phone" /><g
     inkscape:label="Calque 1"
     inkscape:groupmode="layer"
     id="layer1" /><style
     type="text/css"
     id="style1"><![CDATA[
	.st0{fill-rule:evenodd;clip-rule:evenodd;fill:#A1E367;}
	.st1{fill-rule:evenodd;clip-rule:evenodd;fill:#2394E0;}
]]></style><style
     type="text/css"
     id="style1-2">.st0{fill-rule:evenodd;clip-rule:evenodd;}</style><path
     fill-rule="evenodd"
     clip-rule="evenodd"
     d="M 53.864411,122.86678 H 164.10765 c 24.54136,0 44.61935,20.07979 44.61935,44.61935 v 78.74723 c 0,24.54136 -20.07799,44.62115 -44.61935,44.62115 h -39.12162 l 12.82278,32.70369 c 0,0 -56.132736,-32.70369 -72.383589,-32.70369 h -11.56081 c -24.54316,0 -44.62295,-20.07979 -44.62295,-44.62115 v -78.74723 c 0,-24.53956 20.07979,-44.61935 44.62295,-44.61935 z"
     id="path5"
     sodipodi:nodetypes="scsssscscccs"
     style="fill:#ead9ff;fill-opacity:0.9;stroke:#000000;stroke-width:5.40797;stroke-dasharray:none;stroke-opacity:1"
     inkscape:label="bulle2" /><path
     fill-rule="evenodd"
     clip-rule="evenodd"
     d="M 375.10405,40.36678 H 264.86081 c -24.54136,0 -44.61935,20.07979 -44.61935,44.61935 v 78.74723 c 0,24.54136 20.07799,44.62115 44.61935,44.62115 h 39.12162 l -12.82278,32.70369 c 0,0 56.13274,-32.70369 72.38359,-32.70369 h 11.56081 c 24.54316,0 44.62295,-20.07979 44.62295,-44.62115 V 84.98613 c 0,-24.53956 -20.07979,-44.61935 -44.62295,-44.61935 z"
     id="path7"
     sodipodi:nodetypes="scsssscscccs"
     style="fill:#ead9ff;fill-opacity:0.9;stroke:#000000;stroke-width:5.40797;stroke-dasharray:none;stroke-opacity:1"
     inkscape:label="bulle1" /><g
     id="g2"
     transform="translate(262.11876,65.078715)"
     inkscape:label="earth"
     style="opacity:1"><path
       class="st1"
       d="m 61.44,0 c 33.93,0 61.44,27.51 61.44,61.44 0,33.93 -27.51,61.44 -61.44,61.44 C 27.51,122.88 0,95.37 0,61.44 0,27.51 27.51,0 61.44,0 Z"
       id="path1"
       style="opacity:0.8"
       inkscape:label="bleu" /><path
       class="st0"
       d="M 11.76,93.18 C 8.14,87.69 5.43,81.54 3.84,74.95 l 10.82,5.22 0.06,3.23 c 0,1.19 -2.02,3.71 -2.67,4.67 z M 78.31,6.5 c 20.62,6.85 36.09,25 39.07,47.1 l -1.95,-0.21 c -0.35,1.5 -0.67,1.53 -0.67,3.33 0,1.59 2,2.65 2,6 0,0.9 -2.11,2.69 -2.2,3.01 l -3.13,-3.67 v 4.67 l -0.47,-0.02 -0.84,-8.62 -1.75,0.55 -2.08,-6.41 -6.85,7.16 -0.08,5.24 -2.24,1.5 -2.38,-13.44 -1.42,1.04 -3.22,-4.35 -4.81,0.14 -1.84,-2.11 -1.89,0.52 -3.71,-4.25 -0.72,0.49 2.3,5.88 h 2.67 v -1.33 h 1.33 c 0.96,2.66 2,1.08 2,2.67 0,5.55 -6.85,9.63 -11.34,10.67 0.24,1 0.15,2 1.33,2 2.51,0 1.26,-0.44 4,-0.67 -0.13,5.67 -6.5,12.44 -9.22,16.65 l 1.22,8.69 c 0.32,1.89 -3.92,3.88 -5.36,6.01 l 0.69,3.33 -1.95,0.79 c -0.34,3.42 -3.66,7.21 -7.39,7.21 h -4 c 0,-4.68 -3.34,-11.37 -3.34,-14.68 0,-2.81 1.33,-3.19 1.33,-6.67 0,-3.22 -3.33,-7.83 -3.33,-8.67 V 70.71 H 45.4 c -0.4,-1.49 -0.15,-2 -2,-2 h -0.67 c -2.91,0 -2.42,1.33 -5.34,1.33 h -2.67 c -2.41,0 -6.67,-7.72 -6.67,-8.67 v -8 c 0,-3.45 3.16,-7.21 5.34,-8.67 v -3.33 l 3,-3.05 1.67,-0.28 c 3.58,0 3.15,-2 5.34,-2 h 6 v 4.67 l 6.6,2.82 0.62,-2.85 c 2.99,0.7 3.77,2.03 7.45,2.03 h 1.33 c 2.53,0 2.67,-3.36 2.67,-6 l -5.34,0.53 -2.33,-5.06 -2.31,0.61 c 0.42,1.81 0.64,1.06 0.64,2.59 0,0.9 -0.74,1 -1.34,1.33 l -2.31,-5.86 -4.97,-3.55 -0.66,0.65 4.23,4.45 c -0.56,1.6 -0.63,6.21 -2.96,2.98 l 2.18,-1.05 -5.44,-5.7 -3.26,1.27 -3.22,3.08 c -0.34,2.48 -1.01,3.73 -3.61,3.73 -1.73,0 -0.69,-0.45 -3.34,-0.67 v -6.67 h 6 l -1.95,-4.44 -0.72,0.44 v -1.34 l 9.75,-4.49 c -0.18,-1.4 -0.41,-0.65 -0.41,-2.18 0,-0.09 0.65,-1.32 0.67,-1.34 l 2.52,1.57 -0.6,-2.87 -3.89,0.8 -0.72,-3.49 c 3.08,-1.62 9.87,-7.34 12.03,-7.34 h 2 c 2.11,0 7.75,2.08 8.67,3.33 L 62.03,7.48 66,10.75 66.38,9.35 69.34,8.54 69.38,6.69 h 1.34 v 2 z"
       id="path2"
       style="opacity:0.8"
       inkscape:label="vert" /></g><g
     id="g8"><rect
       style="opacity:0.8;fill:#b5b5b5;fill-opacity:1;stroke:none;stroke-width:2;stroke-linecap:round;stroke-linejoin:bevel;stroke-dasharray:none;stroke-opacity:1"
       id="rect8"
       width="97.050407"
       height="109.95509"
       x="57.452427"
       y="152.73506"
       inkscape:label="bg" /><path
       d="M 68.565001,145.81499 H 151.285 a 3.32,3.32 0 0 1 3.31,3.31 v 92.32 c -0.15,2.58 -3.48,2.64 -7.08,2.48 H 67.345001 c -4.98,0 -9.05,4.07 -9.05,9.05 0,4.98 4.07,9.05 9.05,9.05 H 147.515 v -9.63 h 7.08 v 12.24 c 0,2.23 -1.82,4.05 -4.05,4.05 H 67.695001 c -8.96,0.01 -16.29,-7.32 -16.29,-16.28 v -89.43 c 0,-9.44 7.72,-17.16 17.16,-17.16 z m 3.19,13.4 h 2.86 c 1.46,0 2.66,0.97 2.66,2.15 v 67.47 c 0,1.18 -1.2,2.15 -2.66,2.15 h -2.86 c -1.46,0 -2.66,-0.97 -2.66,-2.15 v -67.47 c 0.01,-1.19 1.2,-2.15 2.66,-2.15 z"
       fill-rule="evenodd"
       clip-rule="evenodd"
       id="path1-4"
       style="fill:#b55353;fill-opacity:1;stroke:none;stroke-opacity:1"
       inkscape:label="Book" /></g></svg>
