<?xml version="1.0" encoding="utf-8"?><!-- Uploaded to: SVG Repo, www.svgrepo.com, Generator: SVG Repo Mixer Tools -->
<svg fill="#000000" width="800px" height="800px" viewBox="0 0 24 24" id="maps-location-place" data-name="Flat Color" xmlns="http://www.w3.org/2000/svg" class="icon flat-color"><path id="primary" d="M2,16V10A2,2,0,0,1,4,8h7.56l3,8Zm8,2v4H20a2,2,0,0,0,2-2V18Z" style="fill: rgb(0, 0, 0);"></path><path id="secondary" d="M13.69,8H20a2,2,0,0,1,2,2v6H16.69ZM8,18H2v2a2,2,0,0,0,2,2H8ZM8.5,2A4.51,4.51,0,0,0,4,6.5c0,3.91,3.69,7.13,3.85,7.27a1,1,0,0,0,1.3,0C9.31,13.63,13,10.41,13,6.5A4.51,4.51,0,0,0,8.5,2Z" style="fill: rgb(44, 169, 188);"></path></svg>