<?xml version="1.0" encoding="utf-8"?>

<!DOCTYPE svg PUBLIC "-//W3C//DTD SVG 1.1//EN" "http://www.w3.org/Graphics/SVG/1.1/DTD/svg11.dtd">
<!-- Uploaded to: SVG Repo, www.svgrepo.com, Generator: SVG Repo Mixer Tools -->
<svg height="800px" width="800px" version="1.1" id="_x32_" xmlns="http://www.w3.org/2000/svg" xmlns:xlink="http://www.w3.org/1999/xlink" 
	 viewBox="0 0 512 512"  xml:space="preserve">
<style type="text/css">
	.st0{fill:#000000;}
</style>
<g>
	<path class="st0" d="M443.09,0c-30.624,0-55.524,24.899-55.524,55.522v64.633c-6.101-2.256-12.678-3.569-19.54-3.569
		c-13.808,0-26.487,5.165-36.257,13.532c-9.964-9.872-23.679-15.881-38.798-15.881c-8.082,0-15.789,1.688-22.734,4.881
		c-6.707,3.495-11.89,7.404-15.936,11.074c-3.862-3.991-8.183-7.542-13.1-10.22c-7.89-4.229-16.908-6.67-26.487-6.67
		c-9.587,0-18.605,2.441-26.496,6.67c-15.715,8.624-26.743,24.587-28.632,43.22h-0.367v5.229c0,0.138-0.027,0.258-0.027,0.395v9.248
		v24.275v34.962c-13.432-18.312-28.092-38.137-35.982-47.999c-1.789-2.45-3.66-4.422-4.88-5.734l-0.102-0.091l-0.752-0.844h-0.091
		l-0.284-0.285c-5.918-6.11-11.174-10.431-17.193-14.092c-4.412-2.724-8.734-4.697-13.339-6.201
		c-5.725-1.881-11.642-2.817-17.66-2.817h-0.936c-17.193,0.183-33.073,8.266-43.403,22.074
		c-10.432,13.908-13.716,31.376-9.212,48.101c2.258,7.798,7.148,19.826,14.661,35.982c10.706,23.202,27.248,52.89,56.926,102.495
		c25.744,43.211,49.606,67.267,87.376,99.019C207.943,495.092,259.898,512,313.265,512c87.082,0,153.596-43.211,173.697-112.917
		c6.019-20.762,11.56-42.844,11.652-63.606V55.522C498.614,24.899,473.714,0,443.09,0z M313.265,483.064
		c-45.752,0-91.505-14.092-120.257-38.33c-34.009-28.651-56.459-50.257-81.257-91.688c-30.441-50.918-45.661-78.634-55.524-99.862
		c-9.862-21.23-12.311-29.312-12.871-31.468c-2.256-7.991-0.66-16.349,4.322-22.927c4.981-6.669,12.587-10.523,20.853-10.614h0.376
		c3.193,0,6.11,0.559,8.743,1.404c2.624,0.853,4.972,1.972,7.138,3.294c3.945,2.44,7.514,5.449,11.55,9.678l0.835,0.826l0.752,0.799
		l-0.514-0.56c0.175,0.202,0.376,0.377,0.524,0.533c0.284,0.274,0.477,0.559,0.853,0.936c0.376,0.376,0.651,0.752,0.936,0.936
		c0,0-0.092-0.092-0.184-0.092c0.074,0.083,0.174,0.229,0.247,0.312l-0.247,0.624l0.276-0.587
		c13.788,16.881,63.696,86.266,63.696,86.266c2.633,3.578,6.762,5.551,10.992,5.551c1.413,0,2.908-0.285,4.32-0.752
		c5.542-1.79,9.394-7.046,9.394-12.964v-2.285c7.872,4.294,16.9,6.744,26.487,6.744c16.596,0,31.468-7.377,41.642-18.954
		c9.678,9.229,23.009,14.964,36.806,14.964c15.312,0,28.845-7.238,37.772-18.321c8.825,10.808,22.164,17.945,37.293,17.945
		c26.771,0,48.284-21.707,48.284-48.477V55.522c0-14.651,11.936-26.495,26.588-26.495c14.661,0,26.495,11.844,26.495,26.495v266.992
		c0,0,0,1.789,0,6.384v6.487c0,16.44-4.514,35.138-10.431,55.707C440.457,455.918,376.861,483.064,313.265,483.064z
		 M214.714,142.229c14.652,0,26.487,11.936,26.487,26.588v37.431v29.926c0,0.184,0.046,0.348,0.046,0.532v0.624
		c0,14.651-11.891,26.541-26.541,26.541c-14.496,0-26.239-11.652-26.487-26.083v-71.697
		C189.632,152.752,200.999,142.229,214.714,142.229z M292.971,143.174c14.652,0,26.486,11.835,26.486,26.495v66.505
		c0,14.752-11.55,26.689-26.303,26.689c-9.862,0-18.321-5.267-22.917-13.156c-2.349-3.946-3.67-8.643-3.762-13.533v-66.505
		c0-4.137,0.936-8.082,2.724-11.559C273.43,149.275,282.448,143.174,292.971,143.174z M394.522,235.991
		c0,14.56-11.652,26.395-26.303,26.495c-14.56-0.1-26.679-11.936-26.77-26.495V172.11c0-14.661,11.926-26.495,26.578-26.495
		c14.66,0,26.495,11.834,26.495,26.495V235.991z"/>
</g>
</svg>